<?xml version="1.0"?>
<svg version="1.1" xmlns="http://www.w3.org/2000/svg" width="612" height="507" style=""><path fill="#fcfafa" d="M27.876,281.63l0-27.26l-5.51,0l-1.45,5.51l-5.336,0l0-12.47l33.64,0l0,12.47l-5.394,0l-1.45-5.51l-5.51,0l0,27.26l5.51,1.74l0,4.93l-20.01,0l0-4.93z M55.86158,288.3l0-4.93l4.35-1.74l0-27.26l-4.35-1.74l0-4.93l17.98-0.29l0,5.22l-4.64,1.74l0,9.28l15.196,0l0-9.28l-4.64-1.74l0-4.93l17.98-0.29l0,5.22l-4.35,1.74l0,27.26l4.35,1.74l0,4.93l-17.98,0l0-4.93l4.64-1.74l0-11.02l-15.196,0l0,11.02l4.64,1.74l0,4.93l-17.98,0z M131.46516,263.94l0,6.38l-11.716,0l0,11.02l10.382,0l1.334-4.756l5.22,0l0,11.716l-30.276,0l0-4.93l4.35-1.74l0-27.26l-4.35-1.74l0-4.93l13.34-0.29l16.24,0l0,11.194l-5.22,0l-1.45-4.234l-9.57,0l0,9.57l11.716,0z M163.59832,288.3l0-4.93l4.35-1.74l0-27.26l-4.35-1.74l0-4.93l14.964-0.29l8.7,19.314l9.106-19.024l13.92-0.29l0,5.22l-4.176,1.74l0,27.26l4.35,1.74l0,4.93l-17.284,0l0-4.93l4.524-1.74l0-21.808l-1.566,3.828l-6.554,13.63l-6.264,0.29l-6.67-13.746l-0.986-3.016l0,20.822l4.466,1.74l0,4.93l-16.53,0z M259.6179,283.37l0,4.93l-18.444,0l0-4.93l4.35-1.566l-1.392-4.234l-12.876,0l-1.45,4.176l4.524,1.624l0,4.93l-17.516,0l0-4.93l4.234-1.624l12.76-34.162l9.28-0.174l12.47,34.336z M242.2179,271.364l-4.35-13.746l-4.582,13.746l8.932,0z M276.81548,281.63l0-27.26l-5.51,0l-1.45,5.51l-5.336,0l0-12.47l33.64,0l0,12.47l-5.394,0l-1.45-5.51l-5.51,0l0,27.26l5.51,1.74l0,4.93l-20.01,0l0-4.93z M304.80106,288.3l0-4.93l4.35-1.74l0-27.26l-4.35-1.74l0-4.93l13.34-0.29l4.408,0c9.512,0,15.08,3.944,15.08,11.832c0,5.452-2.61,8.99-6.554,10.962c0.638,0.754,1.508,1.856,2.436,3.77l3.886,7.946l3.944,1.45l0,4.93l-10.73,0l-4.872-10.73c-1.972-4.408-2.494-5.336-5.568-5.336l-2.03,0l0,9.396l4.176,1.74l0,4.93l-17.516,0z M318.14106,266.144l3.306,0c4.582,0,7.25-2.204,7.25-6.09c0-3.306-2.204-5.684-5.8-5.684l-4.756,0l0,11.774z M348.27264,288.3l0-4.93l4.35-1.74l0-27.26l-4.35-1.74l0-4.93l17.69-0.29l0,5.22l-4.35,1.74l0,27.26l4.35,1.74l0,4.93l-17.69,0z M372.89422,288.3l0-4.93l3.596-1.45l11.716-14.152l-10.788-14.036l-3.364-1.102l0-4.93l17.4-0.29l0,5.22l-2.9,0.986l5.974,7.946l5.684-7.714l-3.132-1.218l0-4.93l16.704-0.29l0,5.22l-3.828,1.16l-10.672,13.514l11.31,14.674l4.06,1.392l0,4.93l-17.98,0l0-4.93l2.668-1.16l-6.38-8.584l-6.496,8.352l3.654,1.392l0,4.93l-17.226,0z"/><path fill="#" d=""/></svg>
