<?xml version="1.0"?>
<svg version="1.1" xmlns="http://www.w3.org/2000/svg" width="595" height="415" style=""><path fill="#fcfafa" d="M25.878,231.265l0-23.03l-4.655,0l-1.225,4.655l-4.508,0l0-10.535l28.42,0l0,10.535l-4.557,0l-1.225-4.655l-4.655,0l0,23.03l4.655,1.47l0,4.165l-16.905,0l0-4.165z M49.52099,236.9l0-4.165l3.675-1.47l0-23.03l-3.675-1.47l0-4.165l15.19-0.245l0,4.41l-3.92,1.47l0,7.84l12.838,0l0-7.84l-3.92-1.47l0-4.165l15.19-0.245l0,4.41l-3.675,1.47l0,23.03l3.675,1.47l0,4.165l-15.19,0l0-4.165l3.92-1.47l0-9.31l-12.838,0l0,9.31l3.92,1.47l0,4.165l-15.19,0z M113.39298,216.32l0,5.39l-9.898,0l0,9.31l8.771,0l1.127-4.018l4.41,0l0,9.898l-25.578,0l0-4.165l3.675-1.47l0-23.03l-3.675-1.47l0-4.165l11.27-0.245l13.72,0l0,9.457l-4.41,0l-1.225-3.577l-8.085,0l0,8.085l9.898,0z M140.53996,236.9l0-4.165l3.675-1.47l0-23.03l-3.675-1.47l0-4.165l12.642-0.245l7.35,16.317l7.693-16.072l11.76-0.245l0,4.41l-3.528,1.47l0,23.03l3.675,1.47l0,4.165l-14.602,0l0-4.165l3.822-1.47l0-18.424l-1.323,3.234l-5.537,11.515l-5.292,0.245l-5.635-11.613l-0.833-2.548l0,17.591l3.773,1.47l0,4.165l-13.965,0z M221.65995,232.735l0,4.165l-15.582,0l0-4.165l3.675-1.323l-1.176-3.577l-10.878,0l-1.225,3.528l3.822,1.372l0,4.165l-14.798,0l0-4.165l3.577-1.372l10.78-28.861l7.84-0.147l10.535,29.008z M206.95995,222.592l-3.675-11.613l-3.871,11.613l7.546,0z M236.18894,231.265l0-23.03l-4.655,0l-1.225,4.655l-4.508,0l0-10.535l28.42,0l0,10.535l-4.557,0l-1.225-4.655l-4.655,0l0,23.03l4.655,1.47l0,4.165l-16.905,0l0-4.165z M259.83193,236.9l0-4.165l3.675-1.47l0-23.03l-3.675-1.47l0-4.165l11.27-0.245l3.724,0c8.036,0,12.74,3.332,12.74,9.996c0,4.606-2.205,7.595-5.537,9.261c0.539,0.637,1.274,1.568,2.058,3.185l3.283,6.713l3.332,1.225l0,4.165l-9.065,0l-4.116-9.065c-1.666-3.724-2.107-4.508-4.704-4.508l-1.715,0l0,7.938l3.528,1.47l0,4.165l-14.798,0z M271.10193,218.182l2.793,0c3.871,0,6.125-1.862,6.125-5.145c0-2.793-1.862-4.802-4.9-4.802l-4.018,0l0,9.947z M296.55792,236.9l0-4.165l3.675-1.47l0-23.03l-3.675-1.47l0-4.165l14.945-0.245l0,4.41l-3.675,1.47l0,23.03l3.675,1.47l0,4.165l-14.945,0z M317.35891,236.9l0-4.165l3.038-1.225l9.898-11.956l-9.114-11.858l-2.842-0.931l0-4.165l14.7-0.245l0,4.41l-2.45,0.833l5.047,6.713l4.802-6.517l-2.646-1.029l0-4.165l14.112-0.245l0,4.41l-3.234,0.98l-9.016,11.417l9.555,12.397l3.43,1.176l0,4.165l-15.19,0l0-4.165l2.254-0.98l-5.39-7.252l-5.488,7.056l3.087,1.176l0,4.165l-14.553,0z"/><path fill="#" d=""/></svg>
